<svg width="24" height="24" viewBox="0 0 24 24" fill="none" xmlns="http://www.w3.org/2000/svg">
<path d="M22.8 18.4C22.8 18.9304 22.5931 19.4391 22.2249 19.8142C21.8566 20.1893 21.3572 20.4 20.8364 20.4H3.16365C2.64286 20.4 2.1434 20.1893 1.77515 19.8142C1.40689 19.4391 1.20001 18.9304 1.20001 18.4V7.39999C1.20001 6.86956 1.40689 6.36085 1.77515 5.98578C2.1434 5.61071 2.64286 5.39999 3.16365 5.39999H7.09092L9.05456 2.39999H14.9455L16.9091 5.39999H20.8364C21.3572 5.39999 21.8566 5.61071 22.2249 5.98578C22.5931 6.36085 22.8 6.86956 22.8 7.39999V18.4Z" stroke="#FEFEFF" stroke-width="1.5" stroke-linecap="round" stroke-linejoin="round"/>
<path d="M12 15.6C13.9883 15.6 15.6 13.9882 15.6 12C15.6 10.0118 13.9883 8.39999 12 8.39999C10.0118 8.39999 8.40002 10.0118 8.40002 12C8.40002 13.9882 10.0118 15.6 12 15.6Z" stroke="white" stroke-width="1.5" stroke-linecap="round" stroke-linejoin="round"/>
</svg>
