<svg width="41" height="40" viewBox="0 0 41 40" fill="none" xmlns="http://www.w3.org/2000/svg">
<g filter="url(#filter0_d_0_1)">
<rect x="10.6666" y="10" width="8.33333" height="8.33333" rx="1" stroke="#3FD958" stroke-width="2" shape-rendering="crispEdges"/>
</g>
<g filter="url(#filter1_d_0_1)">
<rect x="10.6666" y="21.6667" width="8.33333" height="8.33333" rx="1" stroke="#3FD958" stroke-width="2" shape-rendering="crispEdges"/>
</g>
<g filter="url(#filter2_d_0_1)">
<path d="M26.4999 11C27.0522 11 27.4999 10.5523 27.4999 10C27.4999 9.44772 27.0522 9 26.4999 9V11ZM31.6666 14.1667C31.6666 13.6144 31.2189 13.1667 30.6666 13.1667C30.1143 13.1667 29.6666 13.6144 29.6666 14.1667H31.6666ZM29.6666 17.3333H23.3333V19.3333H29.6666V17.3333ZM23.3333 17.3333V11H21.3333V17.3333H23.3333ZM23.3333 11H26.4999V9H23.3333V11ZM29.6666 14.1667V17.3333H31.6666V14.1667H29.6666ZM23.3333 17.3333L23.3333 17.3333H21.3333C21.3333 18.4379 22.2287 19.3333 23.3333 19.3333V17.3333ZM29.6666 19.3333C30.7712 19.3333 31.6666 18.4379 31.6666 17.3333H29.6666L29.6666 17.3333V19.3333ZM23.3333 11L23.3333 11V9C22.2287 9 21.3333 9.89543 21.3333 11H23.3333Z" fill="#3FD958"/>
</g>
<g filter="url(#filter3_d_0_1)">
<rect x="22.3333" y="21.6667" width="8.33333" height="8.33333" rx="1" stroke="#3FD958" stroke-width="2" shape-rendering="crispEdges"/>
</g>
<defs>
<filter id="filter0_d_0_1" x="-20.3334" y="-17" width="70.3334" height="70.3333" filterUnits="userSpaceOnUse" color-interpolation-filters="sRGB">
<feFlood flood-opacity="0" result="BackgroundImageFix"/>
<feColorMatrix in="SourceAlpha" type="matrix" values="0 0 0 0 0 0 0 0 0 0 0 0 0 0 0 0 0 0 127 0" result="hardAlpha"/>
<feOffset dy="4"/>
<feGaussianBlur stdDeviation="15"/>
<feComposite in2="hardAlpha" operator="out"/>
<feColorMatrix type="matrix" values="0 0 0 0 0.247059 0 0 0 0 0.85098 0 0 0 0 0.345098 0 0 0 1 0"/>
<feBlend mode="normal" in2="BackgroundImageFix" result="effect1_dropShadow_0_1"/>
<feBlend mode="normal" in="SourceGraphic" in2="effect1_dropShadow_0_1" result="shape"/>
</filter>
<filter id="filter1_d_0_1" x="-20.3334" y="-5.33334" width="70.3334" height="70.3333" filterUnits="userSpaceOnUse" color-interpolation-filters="sRGB">
<feFlood flood-opacity="0" result="BackgroundImageFix"/>
<feColorMatrix in="SourceAlpha" type="matrix" values="0 0 0 0 0 0 0 0 0 0 0 0 0 0 0 0 0 0 127 0" result="hardAlpha"/>
<feOffset dy="4"/>
<feGaussianBlur stdDeviation="15"/>
<feComposite in2="hardAlpha" operator="out"/>
<feColorMatrix type="matrix" values="0 0 0 0 0.247059 0 0 0 0 0.85098 0 0 0 0 0.345098 0 0 0 1 0"/>
<feBlend mode="normal" in2="BackgroundImageFix" result="effect1_dropShadow_0_1"/>
<feBlend mode="normal" in="SourceGraphic" in2="effect1_dropShadow_0_1" result="shape"/>
</filter>
<filter id="filter2_d_0_1" x="-8.66675" y="-17" width="70.3334" height="70.3333" filterUnits="userSpaceOnUse" color-interpolation-filters="sRGB">
<feFlood flood-opacity="0" result="BackgroundImageFix"/>
<feColorMatrix in="SourceAlpha" type="matrix" values="0 0 0 0 0 0 0 0 0 0 0 0 0 0 0 0 0 0 127 0" result="hardAlpha"/>
<feOffset dy="4"/>
<feGaussianBlur stdDeviation="15"/>
<feComposite in2="hardAlpha" operator="out"/>
<feColorMatrix type="matrix" values="0 0 0 0 0.247059 0 0 0 0 0.85098 0 0 0 0 0.345098 0 0 0 1 0"/>
<feBlend mode="normal" in2="BackgroundImageFix" result="effect1_dropShadow_0_1"/>
<feBlend mode="normal" in="SourceGraphic" in2="effect1_dropShadow_0_1" result="shape"/>
</filter>
<filter id="filter3_d_0_1" x="-8.66675" y="-5.33334" width="70.3334" height="70.3333" filterUnits="userSpaceOnUse" color-interpolation-filters="sRGB">
<feFlood flood-opacity="0" result="BackgroundImageFix"/>
<feColorMatrix in="SourceAlpha" type="matrix" values="0 0 0 0 0 0 0 0 0 0 0 0 0 0 0 0 0 0 127 0" result="hardAlpha"/>
<feOffset dy="4"/>
<feGaussianBlur stdDeviation="15"/>
<feComposite in2="hardAlpha" operator="out"/>
<feColorMatrix type="matrix" values="0 0 0 0 0.247059 0 0 0 0 0.85098 0 0 0 0 0.345098 0 0 0 1 0"/>
<feBlend mode="normal" in2="BackgroundImageFix" result="effect1_dropShadow_0_1"/>
<feBlend mode="normal" in="SourceGraphic" in2="effect1_dropShadow_0_1" result="shape"/>
</filter>
</defs>
</svg>
