<svg width="24" height="24" viewBox="0 0 24 24" fill="none" xmlns="http://www.w3.org/2000/svg">
<path d="M18.0104 6.80026C18.3033 6.50737 18.3033 6.0325 18.0104 5.7396C17.7175 5.44671 17.2426 5.44671 16.9497 5.7396L18.0104 6.80026ZM5.98959 16.6998C5.6967 16.9927 5.6967 17.4675 5.98959 17.7604C6.28249 18.0533 6.75736 18.0533 7.05025 17.7604L5.98959 16.6998ZM16.9497 17.7604C17.2426 18.0533 17.7175 18.0533 18.0104 17.7604C18.3033 17.4675 18.3033 16.9927 18.0104 16.6998L16.9497 17.7604ZM7.05025 5.7396C6.75736 5.44671 6.28249 5.44671 5.98959 5.7396C5.6967 6.0325 5.6967 6.50737 5.98959 6.80026L7.05025 5.7396ZM13.9445 12.6339C13.6517 12.341 13.1768 12.341 12.8839 12.6339C12.591 12.9268 12.591 13.4017 12.8839 13.6946L13.9445 12.6339ZM10.0555 10.8661C10.3483 11.159 10.8232 11.159 11.1161 10.8661C11.409 10.5732 11.409 10.0984 11.1161 9.80547L10.0555 10.8661ZM16.9497 5.7396L5.98959 16.6998L7.05025 17.7604L18.0104 6.80026L16.9497 5.7396ZM18.0104 16.6998L13.9445 12.6339L12.8839 13.6946L16.9497 17.7604L18.0104 16.6998ZM11.1161 9.80547L7.05025 5.7396L5.98959 6.80026L10.0555 10.8661L11.1161 9.80547Z" fill="#FF0303"/>
</svg>
