<svg width="24" height="24" viewBox="0 0 24 24" fill="none" xmlns="http://www.w3.org/2000/svg">
<path d="M7.53033 9.46967C7.23744 9.17678 6.76256 9.17678 6.46967 9.46967C6.17678 9.76256 6.17678 10.2374 6.46967 10.5303L7.53033 9.46967ZM18.5303 10.5303C18.8232 10.2374 18.8232 9.76256 18.5303 9.46967C18.2374 9.17678 17.7626 9.17678 17.4697 9.46967L18.5303 10.5303ZM6.46967 10.5303L11.2626 15.3232L12.3232 14.2626L7.53033 9.46967L6.46967 10.5303ZM13.7374 15.3232L18.5303 10.5303L17.4697 9.46967L12.6768 14.2626L13.7374 15.3232ZM11.2626 15.3232C11.946 16.0066 13.054 16.0066 13.7374 15.3232L12.6768 14.2626C12.5791 14.3602 12.4209 14.3602 12.3232 14.2626L11.2626 15.3232Z" fill="#EFEFFF"/>
</svg>
