<svg width="24" height="24" viewBox="0 0 24 24" fill="none" xmlns="http://www.w3.org/2000/svg">
<path d="M15 15.25C15.4142 15.25 15.75 14.9142 15.75 14.5C15.75 14.0858 15.4142 13.75 15 13.75V15.25ZM7 6.75H17V5.25H7V6.75ZM17.25 7V17H18.75V7H17.25ZM17 17.25H7V18.75H17V17.25ZM6.75 17V14.5H5.25V17H6.75ZM6.75 14.5V7H5.25V14.5H6.75ZM6 15.25H15V13.75H6V15.25ZM7 17.25C6.86193 17.25 6.75 17.1381 6.75 17H5.25C5.25 17.9665 6.0335 18.75 7 18.75V17.25ZM17.25 17C17.25 17.1381 17.1381 17.25 17 17.25V18.75C17.9665 18.75 18.75 17.9665 18.75 17H17.25ZM17 6.75C17.1381 6.75 17.25 6.86193 17.25 7H18.75C18.75 6.0335 17.9665 5.25 17 5.25V6.75ZM7 5.25C6.0335 5.25 5.25 6.0335 5.25 7H6.75C6.75 6.86193 6.86193 6.75 7 6.75V5.25Z" fill="#EFEFFF"/>
</svg>
