<svg width="24" height="24" viewBox="0 0 24 24" fill="none" xmlns="http://www.w3.org/2000/svg">
<rect x="6" y="6" width="5" height="5" rx="1" stroke="#3fd958" stroke-width="1.5"/>
<rect x="6" y="13" width="5" height="5" rx="1" stroke="#3fd958" stroke-width="1.5"/>
<path d="M15.5 6.75C15.9142 6.75 16.25 6.41421 16.25 6C16.25 5.58579 15.9142 5.25 15.5 5.25V6.75ZM18.75 8.5C18.75 8.08579 18.4142 7.75 18 7.75C17.5858 7.75 17.25 8.08579 17.25 8.5H18.75ZM17 10.25H14V11.75H17V10.25ZM13.75 10V7H12.25V10H13.75ZM14 6.75H15.5V5.25H14V6.75ZM17.25 8.5V10H18.75V8.5H17.25ZM14 10.25C13.8619 10.25 13.75 10.1381 13.75 10H12.25C12.25 10.9665 13.0335 11.75 14 11.75V10.25ZM17 11.75C17.9665 11.75 18.75 10.9665 18.75 10H17.25C17.25 10.1381 17.1381 10.25 17 10.25V11.75ZM13.75 7C13.75 6.86193 13.8619 6.75 14 6.75V5.25C13.0335 5.25 12.25 6.0335 12.25 7H13.75Z" fill="#3fd958"/>
<rect x="13" y="13" width="5" height="5" rx="1" stroke="#3fd958" stroke-width="1.5"/>
</svg>
