<svg width="89" height="84" viewBox="0 0 89 84" fill="none" xmlns="http://www.w3.org/2000/svg">
<g filter="url(#filter0_d_71_441)">
<g filter="url(#filter1_d_71_441)">
<path d="M43.1635 70.3636V26.7273H45.959V70.3636H43.1635ZM50.5783 41.1307C50.4419 39.7557 49.8567 38.6875 48.8226 37.9261C47.7885 37.1648 46.3851 36.7841 44.6124 36.7841C43.4078 36.7841 42.3908 36.9545 41.5612 37.2955C40.7317 37.625 40.0953 38.0852 39.6521 38.6761C39.2203 39.267 39.0044 39.9375 39.0044 40.6875C38.9817 41.3125 39.1124 41.858 39.3965 42.3239C39.6919 42.7898 40.0953 43.1932 40.6067 43.5341C41.1181 43.8636 41.709 44.1534 42.3794 44.4034C43.0499 44.642 43.7658 44.8466 44.5271 45.017L47.6635 45.767C49.1862 46.108 50.584 46.5625 51.8567 47.1307C53.1294 47.6989 54.2317 48.3977 55.1635 49.2273C56.0953 50.0568 56.8169 51.0341 57.3283 52.1591C57.851 53.2841 58.1181 54.5739 58.1294 56.0284C58.1181 58.1648 57.5726 60.017 56.4931 61.5852C55.4249 63.142 53.8794 64.3523 51.8567 65.2159C49.8453 66.0682 47.4192 66.4943 44.5783 66.4943C41.7601 66.4943 39.3056 66.0625 37.2146 65.1989C35.1351 64.3352 33.5101 63.0568 32.3396 61.3636C31.1806 59.6591 30.5726 57.5511 30.5158 55.0398H37.6578C37.7374 56.2102 38.0726 57.1875 38.6635 57.9716C39.2658 58.7443 40.0669 59.3295 41.0669 59.7273C42.0783 60.1136 43.2203 60.3068 44.4931 60.3068C45.7431 60.3068 46.8283 60.125 47.7487 59.7614C48.6806 59.3977 49.4021 58.892 49.9135 58.2443C50.4249 57.5966 50.6806 56.8523 50.6806 56.0114C50.6806 55.2273 50.4476 54.5682 49.9817 54.0341C49.5271 53.5 48.8567 53.0455 47.9703 52.6705C47.0953 52.2955 46.0215 51.9545 44.7487 51.6477L40.9476 50.6932C38.0044 49.9773 35.6806 48.858 33.976 47.3352C32.2715 45.8125 31.4249 43.7614 31.4362 41.1818C31.4249 39.0682 31.9874 37.2216 33.1237 35.642C34.2715 34.0625 35.8453 32.8295 37.8453 31.9432C39.8453 31.0568 42.1181 30.6136 44.6635 30.6136C47.2544 30.6136 49.5158 31.0568 51.4476 31.9432C53.3908 32.8295 54.9021 34.0625 55.9817 35.642C57.0612 37.2216 57.6181 39.0511 57.6521 41.1307H50.5783Z" fill="#3FD958"/>
</g>
</g>
<defs>
<filter id="filter0_d_71_441" x="25.3333" y="26.7273" width="48" height="54.2727" filterUnits="userSpaceOnUse" color-interpolation-filters="sRGB">
<feFlood flood-opacity="0" result="BackgroundImageFix"/>
<feColorMatrix in="SourceAlpha" type="matrix" values="0 0 0 0 0 0 0 0 0 0 0 0 0 0 0 0 0 0 127 0" result="hardAlpha"/>
<feOffset dy="4"/>
<feGaussianBlur stdDeviation="2"/>
<feComposite in2="hardAlpha" operator="out"/>
<feColorMatrix type="matrix" values="0 0 0 0 0 0 0 0 0 0 0 0 0 0 0 0 0 0 0.25 0"/>
<feBlend mode="normal" in2="BackgroundImageFix" result="effect1_dropShadow_71_441"/>
<feBlend mode="normal" in="SourceGraphic" in2="effect1_dropShadow_71_441" result="shape"/>
</filter>
<filter id="filter1_d_71_441" x="0.515869" y="0.727264" width="87.6135" height="103.636" filterUnits="userSpaceOnUse" color-interpolation-filters="sRGB">
<feFlood flood-opacity="0" result="BackgroundImageFix"/>
<feColorMatrix in="SourceAlpha" type="matrix" values="0 0 0 0 0 0 0 0 0 0 0 0 0 0 0 0 0 0 127 0" result="hardAlpha"/>
<feOffset dy="4"/>
<feGaussianBlur stdDeviation="15"/>
<feComposite in2="hardAlpha" operator="out"/>
<feColorMatrix type="matrix" values="0 0 0 0 0.254902 0 0 0 0 0.890196 0 0 0 0 0.360784 0 0 0 1 0"/>
<feBlend mode="normal" in2="BackgroundImageFix" result="effect1_dropShadow_71_441"/>
<feBlend mode="normal" in="SourceGraphic" in2="effect1_dropShadow_71_441" result="shape"/>
</filter>
</defs>
</svg>
