<svg width="77" height="74" viewBox="0 0 77 74" fill="none" xmlns="http://www.w3.org/2000/svg">
<g filter="url(#filter0_d_71_442)">
<path d="M37.6509 51.5455V26.0909H39.2816V51.5455H37.6509ZM41.9762 34.4929C41.8966 33.6908 41.5553 33.0677 40.952 32.6236C40.3488 32.1794 39.5302 31.9574 38.4961 31.9574C37.7934 31.9574 37.2001 32.0568 36.7162 32.2557C36.2323 32.4479 35.8611 32.7164 35.6026 33.0611C35.3507 33.4058 35.2248 33.7969 35.2248 34.2344C35.2115 34.599 35.2877 34.9171 35.4535 35.1889C35.6258 35.4607 35.8611 35.696 36.1594 35.8949C36.4577 36.0871 36.8024 36.2562 37.1935 36.402C37.5846 36.5412 38.0022 36.6605 38.4464 36.7599L40.2759 37.1974C41.1642 37.3963 41.9795 37.6615 42.7219 37.9929C43.4643 38.3243 44.1073 38.732 44.6509 39.2159C45.1945 39.6998 45.6154 40.2699 45.9137 40.9261C46.2186 41.5824 46.3744 42.3348 46.381 43.1832C46.3744 44.4295 46.0562 45.5099 45.4265 46.4247C44.8034 47.3329 43.9018 48.0388 42.7219 48.5426C41.5486 49.0398 40.1334 49.2884 38.4762 49.2884C36.8322 49.2884 35.4004 49.0365 34.1807 48.5327C32.9677 48.0289 32.0197 47.2831 31.337 46.2955C30.6608 45.3011 30.3062 44.0715 30.2731 42.6065H34.4393C34.4857 43.2893 34.6812 43.8594 35.0259 44.3168C35.3772 44.7675 35.8446 45.1089 36.4279 45.3409C37.0179 45.5663 37.684 45.679 38.4265 45.679C39.1556 45.679 39.7887 45.5729 40.3256 45.3608C40.8692 45.1487 41.2901 44.8537 41.5884 44.4759C41.8867 44.098 42.0358 43.6638 42.0358 43.1733C42.0358 42.7159 41.9 42.3314 41.6282 42.0199C41.363 41.7083 40.9719 41.4432 40.4549 41.2244C39.9445 41.0057 39.318 40.8068 38.5756 40.6278L36.3583 40.071C34.6414 39.6534 33.2858 39.0005 32.2915 38.1122C31.2972 37.224 30.8034 36.0275 30.81 34.5227C30.8034 33.2898 31.1315 32.2126 31.7944 31.2912C32.4639 30.3698 33.382 29.6506 34.5486 29.1335C35.7153 28.6165 37.0411 28.358 38.5259 28.358C40.0373 28.358 41.3564 28.6165 42.4833 29.1335C43.6168 29.6506 44.4984 30.3698 45.1282 31.2912C45.7579 32.2126 46.0827 33.2798 46.1026 34.4929H41.9762Z" fill="#3FD958"/>
</g>
<defs>
<filter id="filter0_d_71_442" x="0.272949" y="0.0909119" width="76.1082" height="85.4545" filterUnits="userSpaceOnUse" color-interpolation-filters="sRGB">
<feFlood flood-opacity="0" result="BackgroundImageFix"/>
<feColorMatrix in="SourceAlpha" type="matrix" values="0 0 0 0 0 0 0 0 0 0 0 0 0 0 0 0 0 0 127 0" result="hardAlpha"/>
<feOffset dy="4"/>
<feGaussianBlur stdDeviation="15"/>
<feComposite in2="hardAlpha" operator="out"/>
<feColorMatrix type="matrix" values="0 0 0 0 0.254902 0 0 0 0 0.890196 0 0 0 0 0.360784 0 0 0 1 0"/>
<feBlend mode="normal" in2="BackgroundImageFix" result="effect1_dropShadow_71_442"/>
<feBlend mode="normal" in="SourceGraphic" in2="effect1_dropShadow_71_442" result="shape"/>
</filter>
</defs>
</svg>
