<svg width="24" height="24" viewBox="0 0 24 24" fill="none" xmlns="http://www.w3.org/2000/svg">
<path d="M16.1767 4.72889C16.5793 4.6313 16.8265 4.22585 16.7289 3.8233C16.6313 3.42075 16.2259 3.17352 15.8233 3.27111L16.1767 4.72889ZM7.8233 19.2711C7.42075 19.3687 7.17352 19.7741 7.27111 20.1767C7.3687 20.5793 7.77415 20.8265 8.1767 20.7289L7.8233 19.2711ZM12.75 4C12.75 3.58579 12.4142 3.25 12 3.25C11.5858 3.25 11.25 3.58579 11.25 4H12.75ZM11.25 20C11.25 20.4142 11.5858 20.75 12 20.75C12.4142 20.75 12.75 20.4142 12.75 20H11.25ZM16 4C15.8233 3.27111 15.8231 3.27116 15.8228 3.27123C15.8227 3.27127 15.8223 3.27135 15.822 3.27144C15.8213 3.2716 15.8203 3.27183 15.8191 3.27212C15.8168 3.27271 15.8134 3.27353 15.8091 3.2746C15.8004 3.27673 15.7878 3.27983 15.7716 3.28388C15.7391 3.29199 15.6918 3.3039 15.6311 3.3195C15.5097 3.3507 15.3345 3.39668 15.1168 3.45646C14.6817 3.57594 14.0749 3.75101 13.3862 3.97395C12.0208 4.41593 10.2866 5.06077 8.93362 5.85274C8.26069 6.24665 7.63232 6.70518 7.19523 7.23209C6.75247 7.76582 6.44523 8.45102 6.61986 9.22713C6.7871 9.97042 7.35474 10.5953 8.16964 11.1336C8.99591 11.6794 10.178 12.2044 11.7714 12.7143L12.2286 11.2857C10.697 10.7956 9.66035 10.3206 8.99638 9.88201C8.32105 9.43592 8.12697 9.09207 8.08327 8.89786C8.04696 8.73648 8.07957 8.51542 8.3497 8.18978C8.6255 7.85731 9.08307 7.50335 9.69139 7.14726C10.9009 6.43923 12.5104 5.83407 13.8482 5.40105C14.511 5.18649 15.0956 5.01781 15.514 4.90292C15.7231 4.84551 15.8902 4.80164 16.0044 4.77229C16.0615 4.75762 16.1054 4.74659 16.1345 4.73931C16.1491 4.73567 16.16 4.73297 16.1671 4.73123C16.1707 4.73036 16.1733 4.72973 16.1749 4.72934C16.1757 4.72914 16.1762 4.72901 16.1765 4.72893C16.1767 4.72889 16.1767 4.72888 16.1768 4.72886C16.1768 4.72887 16.1767 4.72889 16 4ZM11.7714 12.7143C13.303 13.2044 14.3397 13.6794 15.0036 14.118C15.679 14.5641 15.873 14.9079 15.9167 15.1021C15.953 15.2635 15.9204 15.4846 15.6503 15.8102C15.3745 16.1427 14.9169 16.4966 14.3086 16.8527C13.0991 17.5608 11.4896 18.1659 10.1518 18.599C9.489 18.8135 8.90438 18.9822 8.48597 19.0971C8.27692 19.1545 8.10977 19.1984 7.99557 19.2277C7.93848 19.2424 7.89465 19.2534 7.86547 19.2607C7.85088 19.2643 7.83996 19.267 7.83287 19.2688C7.82933 19.2696 7.82674 19.2703 7.82514 19.2707C7.82434 19.2709 7.82378 19.271 7.82348 19.2711C7.82332 19.2711 7.82328 19.2711 7.8232 19.2711C7.82322 19.2711 7.8233 19.2711 8 20C8.1767 20.7289 8.17691 20.7288 8.17718 20.7288C8.17735 20.7287 8.17768 20.7286 8.17803 20.7286C8.17872 20.7284 8.17967 20.7282 8.18086 20.7279C8.18324 20.7273 8.18661 20.7265 8.19095 20.7254C8.19963 20.7233 8.21218 20.7202 8.22843 20.7161C8.26093 20.708 8.30822 20.6961 8.36893 20.6805C8.49032 20.6493 8.66546 20.6033 8.88317 20.5435C9.31828 20.4241 9.92507 20.249 10.6138 20.026C11.9792 19.5841 13.7134 18.9392 15.0664 18.1473C15.7393 17.7533 16.3677 17.2948 16.8048 16.7679C17.2475 16.2342 17.5548 15.549 17.3801 14.7729C17.2129 14.0296 16.6453 13.4047 15.8304 12.8664C15.0041 12.3206 13.822 11.7956 12.2286 11.2857L11.7714 12.7143ZM11.25 4V20H12.75V4H11.25Z" fill="#EFEFFF"/>
</svg>
