<svg width="12" height="16" viewBox="0 -4 16 32" fill="none" xmlns="http://www.w3.org/2000/svg">
<path d="M7.65102 25.5455V0.0909076H9.28171V25.5455H7.65102ZM11.9763 8.4929C11.8968 7.69081 11.5554 7.06771 10.9522 6.62358C10.3489 6.17945 9.53028 5.95739 8.49619 5.95739C7.79354 5.95739 7.20027 6.05682 6.71636 6.25568C6.23246 6.44792 5.86125 6.71638 5.60273 7.06108C5.35083 7.40578 5.22489 7.79688 5.22489 8.23438C5.21163 8.59896 5.28786 8.91714 5.45358 9.18892C5.62593 9.4607 5.86125 9.69602 6.15955 9.89489C6.45784 10.0871 6.80254 10.2562 7.19364 10.402C7.58474 10.5412 8.00235 10.6605 8.44648 10.7599L10.276 11.1974C11.1643 11.3963 11.9796 11.6615 12.722 11.9929C13.4645 12.3243 14.1075 12.732 14.651 13.2159C15.1946 13.6998 15.6155 14.2699 15.9138 14.9261C16.2187 15.5824 16.3745 16.3348 16.3811 17.1832C16.3745 18.4295 16.0563 19.5099 15.4266 20.4247C14.8035 21.3329 13.902 22.0388 12.722 22.5426C11.5488 23.0398 10.1335 23.2884 8.47631 23.2884C6.83237 23.2884 5.40055 23.0365 4.18085 22.5327C2.96778 22.0289 2.01987 21.2831 1.3371 20.2955C0.660966 19.3011 0.306326 18.0715 0.273182 16.6065H4.43938C4.48578 17.2893 4.68133 17.8594 5.02602 18.3168C5.37735 18.7675 5.84468 19.1089 6.42801 19.3409C7.01797 19.5663 7.68417 19.679 8.42659 19.679C9.15576 19.679 9.78881 19.5729 10.3257 19.3608C10.8693 19.1487 11.2902 18.8537 11.5885 18.4759C11.8868 18.098 12.036 17.6638 12.036 17.1733C12.036 16.7159 11.9001 16.3314 11.6283 16.0199C11.3631 15.7083 10.972 15.4432 10.455 15.2244C9.94458 15.0057 9.31816 14.8068 8.57574 14.6278L6.35841 14.071C4.64155 13.6534 3.28597 13.0005 2.29165 12.1122C1.29733 11.224 0.803485 10.0275 0.810114 8.52273C0.803485 7.28977 1.13161 6.21259 1.79449 5.29119C2.464 4.36979 3.38208 3.65057 4.54875 3.13352C5.71542 2.61648 7.04117 2.35795 8.52602 2.35795C10.0374 2.35795 11.3565 2.61648 12.4834 3.13352C13.6169 3.65057 14.4986 4.36979 15.1283 5.29119C15.758 6.21259 16.0828 7.27983 16.1027 8.4929H11.9763Z" fill="#EFEFFF"/>
</svg>
