<svg width="41" height="40" viewBox="0 0 41 40" fill="none" xmlns="http://www.w3.org/2000/svg">
<path d="M14.651 28.5455V3.09091H16.2817V28.5455H14.651ZM18.9763 11.4929C18.8968 10.6908 18.5554 10.0677 17.9522 9.62358C17.3489 9.17945 16.5303 8.95739 15.4962 8.95739C14.7935 8.95739 14.2003 9.05682 13.7164 9.25568C13.2325 9.44792 12.8613 9.71638 12.6027 10.0611C12.3508 10.4058 12.2249 10.7969 12.2249 11.2344C12.2116 11.599 12.2879 11.9171 12.4536 12.1889C12.6259 12.4607 12.8613 12.696 13.1595 12.8949C13.4578 13.0871 13.8025 13.2562 14.1936 13.402C14.5847 13.5412 15.0023 13.6605 15.4465 13.7599L17.276 14.1974C18.1643 14.3963 18.9796 14.6615 19.722 14.9929C20.4645 15.3243 21.1075 15.732 21.651 16.2159C22.1946 16.6998 22.6155 17.2699 22.9138 17.9261C23.2187 18.5824 23.3745 19.3348 23.3811 20.1832C23.3745 21.4295 23.0563 22.5099 22.4266 23.4247C21.8035 24.3329 20.902 25.0388 19.722 25.5426C18.5488 26.0398 17.1335 26.2884 15.4763 26.2884C13.8324 26.2884 12.4005 26.0365 11.1809 25.5327C9.96778 25.0289 9.01987 24.2831 8.3371 23.2955C7.66097 22.3011 7.30633 21.0715 7.27318 19.6065H11.4394C11.4858 20.2893 11.6813 20.8594 12.026 21.3168C12.3773 21.7675 12.8447 22.1089 13.428 22.3409C14.018 22.5663 14.6842 22.679 15.4266 22.679C16.1558 22.679 16.7888 22.5729 17.3257 22.3608C17.8693 22.1487 18.2902 21.8537 18.5885 21.4759C18.8868 21.098 19.036 20.6638 19.036 20.1733C19.036 19.7159 18.9001 19.3314 18.6283 19.0199C18.3631 18.7083 17.972 18.4432 17.455 18.2244C16.9446 18.0057 16.3182 17.8068 15.5757 17.6278L13.3584 17.071C11.6416 16.6534 10.286 16.0005 9.29165 15.1122C8.29733 14.224 7.80349 13.0275 7.81011 11.5227C7.80349 10.2898 8.13161 9.21259 8.79449 8.29119C9.464 7.36979 10.3821 6.65057 11.5488 6.13352C12.7154 5.61648 14.0412 5.35795 15.526 5.35795C17.0374 5.35795 18.3565 5.61648 19.4834 6.13352C20.6169 6.65057 21.4986 7.36979 22.1283 8.29119C22.758 9.21259 23.0828 10.2798 23.1027 11.4929H18.9763Z" fill="#EFEFFF"/>
</svg>
