<svg width="24" height="24" viewBox="0 0 24 24" fill="none" xmlns="http://www.w3.org/2000/svg">
<path d="M11.0272 16.1763L10.6762 15.5134L10.6762 15.5134L11.0272 16.1763ZM8.15484 17.6969L8.50576 18.3597L8.15484 17.6969ZM6.80316 16.3452L7.46601 16.6961L6.80316 16.3452ZM8.3238 13.4729L8.98664 13.8238L8.98664 13.8238L8.3238 13.4729ZM13.2375 9.49481C13.5304 9.20192 13.5304 8.72704 13.2375 8.43415C12.9446 8.14126 12.4697 8.14126 12.1768 8.43415L13.2375 9.49481ZM10.6762 15.5134L7.80392 17.0341L8.50576 18.3597L11.3781 16.8391L10.6762 15.5134ZM7.46601 16.6961L8.98664 13.8238L7.66096 13.122L6.14032 15.9943L7.46601 16.6961ZM18.1872 8.0806L16.773 9.49481L17.8337 10.5555L19.2479 9.14126L18.1872 8.0806ZM16.773 9.49481L10.9753 15.2926L12.0359 16.3532L17.8337 10.5555L16.773 9.49481ZM17.8337 9.49481L15.7124 7.37349L14.6517 8.43415L16.773 10.5555L17.8337 9.49481ZM15.7124 7.01994L16.4195 6.31283L15.3588 5.25217L14.6517 5.95928L15.7124 7.01994ZM9.20749 13.5248L13.2375 9.49481L12.1768 8.43415L8.14683 12.4641L9.20749 13.5248ZM15.7124 7.37349C15.6147 7.27586 15.6147 7.11757 15.7124 7.01994L14.6517 5.95928C13.9683 6.64269 13.9683 7.75073 14.6517 8.43415L15.7124 7.37349ZM7.80392 17.0341C7.58634 17.1492 7.35081 16.9137 7.46601 16.6961L6.14032 15.9943C5.33399 17.5174 6.98269 19.1661 8.50576 18.3597L7.80392 17.0341ZM8.98664 13.8238C9.04494 13.7137 9.11938 13.6129 9.20749 13.5248L8.14683 12.4641C7.95299 12.658 7.78922 12.8797 7.66096 13.122L8.98664 13.8238ZM11.3781 16.8391C11.6203 16.7108 11.8421 16.5471 12.0359 16.3532L10.9753 15.2926C10.8871 15.3807 10.7864 15.4551 10.6762 15.5134L11.3781 16.8391ZM18.1872 6.31283C18.6754 6.80098 18.6754 7.59244 18.1872 8.0806L19.2479 9.14126C20.3218 8.06732 20.3218 6.32611 19.2479 5.25217L18.1872 6.31283ZM19.2479 5.25217C18.1739 4.17823 16.4327 4.17823 15.3588 5.25217L16.4195 6.31283C16.9076 5.82467 17.6991 5.82467 18.1872 6.31283L19.2479 5.25217Z" fill="#EFEFFF"/>
</svg>
