<svg width="24" height="24" viewBox="0 0 24 24" fill="none" xmlns="http://www.w3.org/2000/svg">
<path d="M11.0271 16.1763L10.6762 15.5134L10.6762 15.5134L11.0271 16.1763ZM8.15478 17.6969L8.5057 18.3597L8.15478 17.6969ZM6.8031 16.3452L7.46594 16.6961L6.8031 16.3452ZM8.32374 13.4729L8.98658 13.8238L8.98658 13.8238L8.32374 13.4729ZM13.2374 9.49481C13.5303 9.20192 13.5303 8.72704 13.2374 8.43415C12.9445 8.14126 12.4697 8.14126 12.1768 8.43415L13.2374 9.49481ZM10.6762 15.5134L7.80386 17.0341L8.5057 18.3597L11.378 16.8391L10.6762 15.5134ZM7.46594 16.6961L8.98658 13.8238L7.6609 13.122L6.14026 15.9943L7.46594 16.6961ZM18.1872 8.0806L16.773 9.49481L17.8336 10.5555L19.2478 9.14126L18.1872 8.0806ZM16.773 9.49481L10.9752 15.2926L12.0359 16.3532L17.8336 10.5555L16.773 9.49481ZM17.8336 9.49481L15.7123 7.37349L14.6516 8.43415L16.773 10.5555L17.8336 9.49481ZM15.7123 7.01994L16.4194 6.31283L15.3587 5.25217L14.6516 5.95928L15.7123 7.01994ZM9.20743 13.5248L13.2374 9.49481L12.1768 8.43415L8.14677 12.4641L9.20743 13.5248ZM15.7123 7.37349C15.6147 7.27586 15.6147 7.11757 15.7123 7.01994L14.6516 5.95928C13.9682 6.64269 13.9682 7.75073 14.6516 8.43415L15.7123 7.37349ZM7.80386 17.0341C7.58628 17.1492 7.35075 16.9137 7.46594 16.6961L6.14026 15.9943C5.33393 17.5174 6.98263 19.1661 8.5057 18.3597L7.80386 17.0341ZM8.98658 13.8238C9.04488 13.7137 9.11932 13.6129 9.20743 13.5248L8.14677 12.4641C7.95293 12.658 7.78916 12.8797 7.6609 13.122L8.98658 13.8238ZM11.378 16.8391C11.6203 16.7108 11.842 16.5471 12.0359 16.3532L10.9752 15.2926C10.8871 15.3807 10.7863 15.4551 10.6762 15.5134L11.378 16.8391ZM18.1872 6.31283C18.6753 6.80098 18.6753 7.59244 18.1872 8.0806L19.2478 9.14126C20.3218 8.06732 20.3218 6.32611 19.2478 5.25217L18.1872 6.31283ZM19.2478 5.25217C18.1739 4.17823 16.4327 4.17823 15.3587 5.25217L16.4194 6.31283C16.9076 5.82467 17.699 5.82467 18.1872 6.31283L19.2478 5.25217Z" fill="#EFEFFF"/>
</svg>
