<svg width="24" height="24" viewBox="0 0 24 24" fill="none" xmlns="http://www.w3.org/2000/svg">
<path d="M12.75 4C12.75 3.58579 12.4142 3.25 12 3.25C11.5858 3.25 11.25 3.58579 11.25 4H12.75ZM11.25 19.5C11.25 19.9142 11.5858 20.25 12 20.25C12.4142 20.25 12.75 19.9142 12.75 19.5H11.25ZM19.75 12.5C20.1642 12.5 20.5 12.1642 20.5 11.75C20.5 11.3358 20.1642 11 19.75 11V12.5ZM4.25 11C3.83579 11 3.5 11.3358 3.5 11.75C3.5 12.1642 3.83579 12.5 4.25 12.5L4.25 11ZM14 11C13.5858 11 13.25 11.3358 13.25 11.75C13.25 12.1642 13.5858 12.5 14 12.5V11ZM10 12.5C10.4142 12.5 10.75 12.1642 10.75 11.75C10.75 11.3358 10.4142 11 10 11V12.5ZM11.25 4V19.5H12.75V4H11.25ZM19.75 11H14V12.5H19.75V11ZM10 11L4.25 11L4.25 12.5L10 12.5V11Z" fill="#EFEFFF"/>
</svg>
