<svg width="40" height="40" viewBox="0 0 40 40" fill="none" xmlns="http://www.w3.org/2000/svg">
<g filter="url(#filter0_d_71_520)">
<path d="M10 18.5C9.17157 18.5 8.5 19.1716 8.5 20C8.5 20.8284 9.17157 21.5 10 21.5V18.5ZM13.6897 18.8122L12.2529 18.3812V18.3812L13.6897 18.8122ZM15.9268 11.355L17.3636 11.786V11.786L15.9268 11.355ZM24.0732 28.645L22.6364 28.2139L22.6364 28.2139L24.0732 28.645ZM26.3103 21.1878L27.7471 21.6188V21.6188L26.3103 21.1878ZM30 21.5C30.8284 21.5 31.5 20.8284 31.5 20C31.5 19.1716 30.8284 18.5 30 18.5V21.5ZM21.7009 21.9341C21.6185 21.1098 20.8834 20.5083 20.0591 20.5908C19.2348 20.6732 18.6333 21.4083 18.7158 22.2326L21.7009 21.9341ZM20.8333 28.3333L19.3408 28.4826L20.8333 28.3333ZM19.1667 11.6667L20.6592 11.5174V11.5174L19.1667 11.6667ZM18.2991 18.0659C18.3815 18.8902 19.1166 19.4917 19.9409 19.4092C20.7652 19.3268 21.3667 18.5917 21.2842 17.7674L18.2991 18.0659ZM10 21.5H12.0933V18.5H10V21.5ZM15.1264 19.2433L17.3636 11.786L14.4901 10.924L12.2529 18.3812L15.1264 19.2433ZM25.5099 29.076L27.7471 21.6188L24.8736 20.7567L22.6364 28.2139L25.5099 29.076ZM27.9067 21.5H30V18.5H27.9067V21.5ZM18.7158 22.2326L19.3408 28.4826L22.3259 28.1841L21.7009 21.9341L18.7158 22.2326ZM17.6741 11.8159L18.2991 18.0659L21.2842 17.7674L20.6592 11.5174L17.6741 11.8159ZM27.7471 21.6188C27.7682 21.5483 27.8331 21.5 27.9067 21.5V18.5C26.5083 18.5 25.2754 19.4173 24.8736 20.7567L27.7471 21.6188ZM22.6364 28.2139C22.6213 28.2645 22.6056 28.2868 22.6004 28.2935C22.595 28.3007 22.5905 28.3044 22.5851 28.3077C22.5711 28.3163 22.5308 28.3325 22.4689 28.3265C22.407 28.3206 22.3705 28.2971 22.3584 28.2859C22.3537 28.2816 22.35 28.2771 22.346 28.2691C22.3423 28.2615 22.3311 28.2366 22.3259 28.1841L19.3408 28.4826C19.685 31.9249 24.5158 32.3896 25.5099 29.076L22.6364 28.2139ZM17.3636 11.786C17.3787 11.7355 17.3944 11.7132 17.3996 11.7065C17.405 11.6993 17.4095 11.6956 17.4149 11.6923C17.4289 11.6836 17.4692 11.6675 17.5311 11.6735C17.593 11.6794 17.6295 11.7029 17.6416 11.7141C17.6463 11.7184 17.65 11.7229 17.654 11.7309C17.6577 11.7385 17.6689 11.7634 17.6741 11.8159L20.6592 11.5174C20.315 8.07509 15.4842 7.61041 14.4901 10.924L17.3636 11.786ZM12.0933 21.5C13.4917 21.5 14.7246 20.5827 15.1264 19.2433L12.2529 18.3812C12.2318 18.4517 12.1669 18.5 12.0933 18.5V21.5Z" fill="#3FD958"/>
</g>
<defs>
<filter id="filter0_d_71_520" x="-21.5" y="-17.3282" width="83" height="82.6565" filterUnits="userSpaceOnUse" color-interpolation-filters="sRGB">
<feFlood flood-opacity="0" result="BackgroundImageFix"/>
<feColorMatrix in="SourceAlpha" type="matrix" values="0 0 0 0 0 0 0 0 0 0 0 0 0 0 0 0 0 0 127 0" result="hardAlpha"/>
<feOffset dy="4"/>
<feGaussianBlur stdDeviation="15"/>
<feComposite in2="hardAlpha" operator="out"/>
<feColorMatrix type="matrix" values="0 0 0 0 0.247059 0 0 0 0 0.85098 0 0 0 0 0.345098 0 0 0 1 0"/>
<feBlend mode="normal" in2="BackgroundImageFix" result="effect1_dropShadow_71_520"/>
<feBlend mode="normal" in="SourceGraphic" in2="effect1_dropShadow_71_520" result="shape"/>
</filter>
</defs>
</svg>
