<svg width="24" height="24" viewBox="0 0 24 24" fill="none" xmlns="http://www.w3.org/2000/svg">
<path d="M16.5303 15.4697C16.2374 15.1768 15.7626 15.1768 15.4697 15.4697C15.1768 15.7626 15.1768 16.2374 15.4697 16.5303L16.5303 15.4697ZM17.9697 19.0303C18.2626 19.3232 18.7374 19.3232 19.0303 19.0303C19.3232 18.7374 19.3232 18.2626 19.0303 17.9697L17.9697 19.0303ZM15.25 10.5C15.25 13.1234 13.1234 15.25 10.5 15.25V16.75C13.9518 16.75 16.75 13.9518 16.75 10.5H15.25ZM10.5 15.25C7.87665 15.25 5.75 13.1234 5.75 10.5H4.25C4.25 13.9518 7.04822 16.75 10.5 16.75V15.25ZM5.75 10.5C5.75 7.87665 7.87665 5.75 10.5 5.75V4.25C7.04822 4.25 4.25 7.04822 4.25 10.5H5.75ZM10.5 5.75C13.1234 5.75 15.25 7.87665 15.25 10.5H16.75C16.75 7.04822 13.9518 4.25 10.5 4.25V5.75ZM15.4697 16.5303L17.9697 19.0303L19.0303 17.9697L16.5303 15.4697L15.4697 16.5303Z" fill="#EFEFFF"/>
</svg>
