<svg width="24" height="24" viewBox="0 0 24 24" fill="none" xmlns="http://www.w3.org/2000/svg">
<path d="M12.8925 5.76595L12.2231 6.10425L12.2231 6.10425L12.8925 5.76595ZM13.1282 6.2322L12.4588 6.57049V6.57049L13.1282 6.2322ZM14.8203 7.33778C15.1887 7.14852 15.334 6.69641 15.1447 6.32796C14.9554 5.95952 14.5033 5.81426 14.1349 6.00352L14.8203 7.33778ZM17.0433 8.11661C17.1094 7.70772 16.8316 7.32262 16.4227 7.25648C16.0138 7.19033 15.6287 7.46819 15.5625 7.87709L17.0433 8.11661ZM17.1369 9.14473L17.2518 8.40358L17.1369 9.14473ZM17.6532 9.22476L17.768 8.48361H17.768L17.6532 9.22476ZM18.2047 10.9224L18.7333 11.4545L18.7333 11.4545L18.2047 10.9224ZM17.8341 11.2906L17.3055 10.7585L17.3055 10.7585L17.8341 11.2906ZM17.8341 12.7094L17.3055 13.2415L17.3055 13.2415L17.8341 12.7094ZM18.2047 13.0776L18.7333 12.5455L18.7333 12.5455L18.2047 13.0776ZM17.6532 14.7752L17.768 15.5164L17.6532 14.7752ZM17.1369 14.8553L17.2518 15.5964H17.2518L17.1369 14.8553ZM16.3029 16.0031L17.0433 15.8834V15.8834L16.3029 16.0031ZM16.3863 16.5189L15.646 16.6386L16.3863 16.5189ZM14.9423 17.568L14.5996 18.2352L14.9423 17.568ZM14.4776 17.3293L14.1349 17.9965H14.1349L14.4776 17.3293ZM13.1282 17.7678L13.7975 18.1061L13.7975 18.1061L13.1282 17.7678ZM12.8925 18.234L12.2231 17.8957L12.2231 17.8957L12.8925 18.234ZM11.1075 18.234L11.7769 17.8957L11.7769 17.8957L11.1075 18.234ZM10.8719 17.7678L10.2025 18.1061L10.2025 18.1061L10.8719 17.7678ZM9.52248 17.3293L9.86516 17.9965H9.86516L9.52248 17.3293ZM9.05779 17.568L8.7151 16.9009H8.7151L9.05779 17.568ZM7.6137 16.5188L8.35407 16.6386L7.6137 16.5188ZM7.69712 16.0031L8.43749 16.1229H8.43749L7.69712 16.0031ZM6.86313 14.8553L6.74825 15.5964H6.74825L6.86313 14.8553ZM6.34689 14.7752L6.232 15.5164H6.232L6.34689 14.7752ZM5.7953 13.0776L5.26671 12.5455H5.26671L5.7953 13.0776ZM6.16591 12.7094L5.63733 12.1774H5.63733L6.16591 12.7094ZM6.16591 11.2906L5.63733 11.8226H5.63733L6.16591 11.2906ZM5.7953 10.9224L6.32388 10.3903H6.32388L5.7953 10.9224ZM6.34689 9.22476L6.232 8.48361H6.232L6.34689 9.22476ZM6.86313 9.14473L6.74825 8.40358H6.74825L6.86313 9.14473ZM7.69712 7.99685L8.43749 7.87709L8.43749 7.87709L7.69712 7.99685ZM7.6137 7.48115L6.87332 7.60091V7.60091L7.6137 7.48115ZM9.05779 6.43195L8.7151 7.09909L8.7151 7.09909L9.05779 6.43195ZM9.52247 6.67065L9.86516 6.00352V6.00352L9.52247 6.67065ZM10.8719 6.2322L11.5413 6.5705V6.5705L10.8719 6.2322ZM11.1075 5.76595L10.4382 5.42766V5.42766L11.1075 5.76595ZM12.2231 6.10425L12.4588 6.57049L13.7975 5.89391L13.5619 5.42766L12.2231 6.10425ZM17.022 9.88588L17.5383 9.96591L17.768 8.48361L17.2518 8.40358L17.022 9.88588ZM17.6762 10.3903L17.3055 10.7585L18.3627 11.8226L18.7333 11.4545L17.6762 10.3903ZM17.3055 13.2415L17.6762 13.6097L18.7333 12.5455L18.3627 12.1774L17.3055 13.2415ZM17.5383 14.0341L17.022 14.1141L17.2518 15.5964L17.768 15.5164L17.5383 14.0341ZM15.5625 16.1229L15.646 16.6386L17.1267 16.3991L17.0433 15.8834L15.5625 16.1229ZM15.2849 16.9009L14.8203 16.6622L14.1349 17.9965L14.5996 18.2352L15.2849 16.9009ZM12.4588 17.4295L12.2231 17.8957L13.5619 18.5723L13.7975 18.1061L12.4588 17.4295ZM11.7769 17.8957L11.5413 17.4295L10.2025 18.1061L10.4382 18.5723L11.7769 17.8957ZM9.17979 16.6622L8.7151 16.9009L9.40047 18.2352L9.86516 17.9965L9.17979 16.6622ZM8.35407 16.6386L8.43749 16.1229L6.95674 15.8834L6.87332 16.3991L8.35407 16.6386ZM6.97802 14.1141L6.46178 14.0341L6.232 15.5164L6.74825 15.5964L6.97802 14.1141ZM6.32388 13.6097L6.69449 13.2415L5.63733 12.1774L5.26671 12.5455L6.32388 13.6097ZM6.69449 10.7585L6.32388 10.3903L5.26671 11.4545L5.63733 11.8226L6.69449 10.7585ZM6.46178 9.96591L6.97802 9.88588L6.74825 8.40358L6.232 8.48361L6.46178 9.96591ZM8.43749 7.87709L8.35407 7.36138L6.87332 7.60091L6.95674 8.11661L8.43749 7.87709ZM8.7151 7.09909L9.17979 7.33778L9.86516 6.00352L9.40047 5.76482L8.7151 7.09909ZM11.5413 6.5705L11.7769 6.10425L10.4382 5.42766L10.2025 5.89391L11.5413 6.5705ZM14.25 12C14.25 13.2426 13.2426 14.25 12 14.25V15.75C14.071 15.75 15.75 14.0711 15.75 12H14.25ZM12 14.25C10.7573 14.25 9.74997 13.2426 9.74997 12H8.24997C8.24997 14.0711 9.9289 15.75 12 15.75V14.25ZM9.74997 12C9.74997 10.7574 10.7573 9.75 12 9.75V8.25C9.9289 8.25 8.24997 9.92893 8.24997 12H9.74997ZM12 9.75C13.2426 9.75 14.25 10.7574 14.25 12H15.75C15.75 9.92893 14.071 8.25 12 8.25V9.75ZM9.17979 7.33778C10.0435 7.78145 11.1033 7.43711 11.5413 6.5705L10.2025 5.89391C10.1399 6.01771 9.98855 6.0669 9.86516 6.00352L9.17979 7.33778ZM8.35407 7.36138C8.32134 7.15899 8.53273 7.00541 8.7151 7.09909L9.40048 5.76482C8.12389 5.10907 6.64415 6.18417 6.87332 7.60091L8.35407 7.36138ZM6.97802 9.88588C7.93756 9.73714 8.59255 8.83563 8.43749 7.87709L6.95674 8.11661C6.97889 8.25355 6.88532 8.38234 6.74825 8.40358L6.97802 9.88588ZM6.32388 10.3903C6.17843 10.2458 6.25918 9.99731 6.46178 9.96591L6.232 8.48361C4.81379 8.70345 4.24858 10.443 5.26671 11.4545L6.32388 10.3903ZM6.69449 13.2415C7.38335 12.5572 7.38335 11.4428 6.69449 10.7585L5.63733 11.8226C5.73573 11.9204 5.73574 12.0796 5.63733 12.1774L6.69449 13.2415ZM6.46178 14.0341C6.25918 14.0027 6.17843 13.7542 6.32388 13.6097L5.26671 12.5455C4.24858 13.557 4.81379 15.2965 6.232 15.5164L6.46178 14.0341ZM8.43749 16.1229C8.59255 15.1644 7.93756 14.2629 6.97802 14.1141L6.74825 15.5964C6.88532 15.6177 6.97889 15.7464 6.95674 15.8834L8.43749 16.1229ZM8.7151 16.9009C8.53273 16.9946 8.32134 16.841 8.35407 16.6386L6.87332 16.3991C6.64415 17.8158 8.1239 18.8909 9.40047 18.2352L8.7151 16.9009ZM11.5413 17.4295C11.1033 16.5629 10.0435 16.2185 9.17979 16.6622L9.86516 17.9965C9.98855 17.9331 10.1399 17.9823 10.2025 18.1061L11.5413 17.4295ZM12.2231 17.8957C12.1307 18.0787 11.8694 18.0787 11.7769 17.8957L10.4382 18.5723C11.0855 19.8532 12.9146 19.8532 13.5619 18.5723L12.2231 17.8957ZM14.8203 16.6622C13.9565 16.2185 12.8968 16.5629 12.4588 17.4295L13.7975 18.1061C13.8601 17.9823 14.0115 17.9331 14.1349 17.9965L14.8203 16.6622ZM15.646 16.6386C15.6787 16.841 15.4673 16.9946 15.2849 16.9009L14.5996 18.2352C15.8761 18.8909 17.3559 17.8158 17.1267 16.3991L15.646 16.6386ZM17.022 14.1141C16.0625 14.2629 15.4075 15.1644 15.5625 16.1229L17.0433 15.8834C17.0212 15.7464 17.1147 15.6177 17.2518 15.5964L17.022 14.1141ZM17.6762 13.6097C17.8216 13.7542 17.7409 14.0027 17.5383 14.0341L17.768 15.5164C19.1863 15.2965 19.7515 13.557 18.7333 12.5455L17.6762 13.6097ZM17.3055 10.7585C16.6167 11.4428 16.6167 12.5572 17.3055 13.2415L18.3627 12.1774C18.2643 12.0796 18.2643 11.9204 18.3627 11.8226L17.3055 10.7585ZM17.5383 9.96591C17.7409 9.99731 17.8216 10.2458 17.6762 10.3903L18.7333 11.4545C19.7515 10.443 19.1863 8.70345 17.768 8.48361L17.5383 9.96591ZM15.5625 7.87709C15.4075 8.83563 16.0625 9.73714 17.022 9.88588L17.2518 8.40358C17.1147 8.38234 17.0212 8.25355 17.0433 8.11661L15.5625 7.87709ZM12.4588 6.57049C12.8968 7.4371 13.9565 7.78145 14.8203 7.33778L14.1349 6.00352C14.0115 6.0669 13.8601 6.01771 13.7975 5.89391L12.4588 6.57049ZM13.5619 5.42766C12.9146 4.14679 11.0855 4.14679 10.4382 5.42766L11.7769 6.10425C11.8694 5.92126 12.1307 5.92127 12.2231 6.10425L13.5619 5.42766Z" fill="#EFEFFF"/>
</svg>
