<svg width="24" height="24" viewBox="0 0 24 24" fill="none" xmlns="http://www.w3.org/2000/svg">
<path d="M7.53033 14.5303C7.23744 14.8232 6.76256 14.8232 6.46967 14.5303C6.17678 14.2374 6.17678 13.7626 6.46967 13.4697L7.53033 14.5303ZM18.5303 13.4697C18.8232 13.7626 18.8232 14.2374 18.5303 14.5303C18.2374 14.8232 17.7626 14.8232 17.4697 14.5303L18.5303 13.4697ZM6.46967 13.4697L11.2626 8.67678L12.3232 9.73744L7.53033 14.5303L6.46967 13.4697ZM13.7374 8.67678L18.5303 13.4697L17.4697 14.5303L12.6768 9.73744L13.7374 8.67678ZM11.2626 8.67678C11.946 7.99336 13.054 7.99336 13.7374 8.67678L12.6768 9.73744C12.5791 9.63981 12.4209 9.63981 12.3232 9.73744L11.2626 8.67678Z" fill="#EFEFFF"/>
</svg>
