<svg width="24" height="24" viewBox="0 0 24 24" fill="none" xmlns="http://www.w3.org/2000/svg">
<path d="M9.7014 2.79309C9.07144 3.55857 8.10177 3.96022 7.11505 3.86439C5.24985 3.68325 3.68322 5.24988 3.86436 7.11509C3.96019 8.1018 3.55854 9.07147 2.79306 9.70143C1.34608 10.8922 1.34608 13.1078 2.79306 14.2986C3.55854 14.9286 3.96019 15.8982 3.86436 16.8849C3.68322 18.7501 5.24985 20.3168 7.11505 20.1356C8.10177 20.0398 9.07144 20.4415 9.7014 21.2069C10.8922 22.6539 13.1078 22.6539 14.2986 21.2069C14.9285 20.4415 15.8982 20.0398 16.8849 20.1356C18.7501 20.3168 20.3168 18.7501 20.1356 16.8849C20.0398 15.8982 20.4414 14.9286 21.2069 14.2986C22.6539 13.1078 22.6539 10.8922 21.2069 9.70143C20.4414 9.07147 20.0398 8.1018 20.1356 7.11509C20.3168 5.24988 18.7501 3.68325 16.8849 3.86439C15.8982 3.96022 14.9285 3.55857 14.2986 2.79309C13.1078 1.34611 10.8922 1.34611 9.7014 2.79309Z" fill="#3BD4FF" stroke="#5EEBFF"/>
<g filter="url(#filter0_d_4_559)">
<path d="M8.70711 10.7929C8.31658 10.4024 7.68342 10.4024 7.29289 10.7929C6.90237 11.1834 6.90237 11.8166 7.29289 12.2071L8.70711 10.7929ZM11 14.5L10.2929 15.2071C10.6834 15.5976 11.3166 15.5976 11.7071 15.2071L11 14.5ZM17.2071 9.70711C17.5976 9.31658 17.5976 8.68342 17.2071 8.29289C16.8166 7.90237 16.1834 7.90237 15.7929 8.29289L17.2071 9.70711ZM7.29289 12.2071L10.2929 15.2071L11.7071 13.7929L8.70711 10.7929L7.29289 12.2071ZM11.7071 15.2071L17.2071 9.70711L15.7929 8.29289L10.2929 13.7929L11.7071 15.2071Z" fill="white"/>
</g>
<defs>
<filter id="filter0_d_4_559" x="5" y="6" width="14.5" height="11.5" filterUnits="userSpaceOnUse" color-interpolation-filters="sRGB">
<feFlood flood-opacity="0" result="BackgroundImageFix"/>
<feColorMatrix in="SourceAlpha" type="matrix" values="0 0 0 0 0 0 0 0 0 0 0 0 0 0 0 0 0 0 127 0" result="hardAlpha"/>
<feOffset/>
<feGaussianBlur stdDeviation="1"/>
<feComposite in2="hardAlpha" operator="out"/>
<feColorMatrix type="matrix" values="0 0 0 0 0 0 0 0 0 0.338437 0 0 0 0 0.483482 0 0 0 0.4 0"/>
<feBlend mode="normal" in2="BackgroundImageFix" result="effect1_dropShadow_4_559"/>
<feBlend mode="normal" in="SourceGraphic" in2="effect1_dropShadow_4_559" result="shape"/>
</filter>
</defs>
</svg>
