<svg width="24" height="24" viewBox="0 0 24 24" fill="none" xmlns="http://www.w3.org/2000/svg">
<path d="M21.4375 7.5H1.5625C1.25313 7.5 1 7.24687 1 6.9375V5.25C1 4.00781 2.00781 3 3.25 3H5.5V0.5625C5.5 0.253125 5.75313 0 6.0625 0H7.9375C8.24687 0 8.5 0.253125 8.5 0.5625V3H14.5V0.5625C14.5 0.253125 14.7531 0 15.0625 0H16.9375C17.2469 0 17.5 0.253125 17.5 0.5625V3H19.75C20.9922 3 22 4.00781 22 5.25V6.9375C22 7.24687 21.7469 7.5 21.4375 7.5ZM1.5625 9H21.4375C21.7469 9 22 9.25313 22 9.5625V21.75C22 22.9922 20.9922 24 19.75 24H3.25C2.00781 24 1 22.9922 1 21.75V9.5625C1 9.25313 1.25313 9 1.5625 9ZM7 18.5625C7 18.2531 6.74687 18 6.4375 18H4.5625C4.25312 18 4 18.2531 4 18.5625V20.4375C4 20.7469 4.25312 21 4.5625 21H6.4375C6.74687 21 7 20.7469 7 20.4375V18.5625ZM7 12.5625C7 12.2531 6.74687 12 6.4375 12H4.5625C4.25312 12 4 12.2531 4 12.5625V14.4375C4 14.7469 4.25312 15 4.5625 15H6.4375C6.74687 15 7 14.7469 7 14.4375V12.5625ZM13 18.5625C13 18.2531 12.7469 18 12.4375 18H10.5625C10.2531 18 10 18.2531 10 18.5625V20.4375C10 20.7469 10.2531 21 10.5625 21H12.4375C12.7469 21 13 20.7469 13 20.4375V18.5625ZM13 12.5625C13 12.2531 12.7469 12 12.4375 12H10.5625C10.2531 12 10 12.2531 10 12.5625V14.4375C10 14.7469 10.2531 15 10.5625 15H12.4375C12.7469 15 13 14.7469 13 14.4375V12.5625ZM19 18.5625C19 18.2531 18.7469 18 18.4375 18H16.5625C16.2531 18 16 18.2531 16 18.5625V20.4375C16 20.7469 16.2531 21 16.5625 21H18.4375C18.7469 21 19 20.7469 19 20.4375V18.5625ZM19 12.5625C19 12.2531 18.7469 12 18.4375 12H16.5625C16.2531 12 16 12.2531 16 12.5625V14.4375C16 14.7469 16.2531 15 16.5625 15H18.4375C18.7469 15 19 14.7469 19 14.4375V12.5625Z" fill="white"/>
</svg>
