<svg width="130" height="162" viewBox="0 0 130 162" fill="none" xmlns="http://www.w3.org/2000/svg">
<g filter="url(#filter0_d_18_680)">
<path d="M49.1605 107.727V20.4545H54.7514V107.727H49.1605ZM63.9901 49.2614C63.7173 46.5114 62.5469 44.375 60.4787 42.8523C58.4105 41.3295 55.6037 40.5682 52.0582 40.5682C49.6491 40.5682 47.6151 40.9091 45.956 41.5909C44.2969 42.25 43.0241 43.1705 42.1378 44.3523C41.2741 45.5341 40.8423 46.875 40.8423 48.375C40.7969 49.625 41.0582 50.7159 41.6264 51.6477C42.2173 52.5795 43.0241 53.3864 44.0469 54.0682C45.0696 54.7273 46.2514 55.3068 47.5923 55.8068C48.9332 56.2841 50.3651 56.6932 51.8878 57.0341L58.1605 58.5341C61.206 59.2159 64.0014 60.125 66.5469 61.2614C69.0923 62.3977 71.2969 63.7955 73.1605 65.4545C75.0241 67.1136 76.4673 69.0682 77.4901 71.3182C78.5355 73.5682 79.0696 76.1477 79.0923 79.0568C79.0696 83.3295 77.9787 87.0341 75.8196 90.1705C73.6832 93.2841 70.5923 95.7045 66.5469 97.4318C62.5241 99.1364 57.6719 99.9886 51.9901 99.9886C46.3537 99.9886 41.4446 99.125 37.2628 97.3977C33.1037 95.6705 29.8537 93.1136 27.5128 89.7273C25.1946 86.3182 23.9787 82.1023 23.8651 77.0795H38.1491C38.3082 79.4205 38.9787 81.375 40.1605 82.9432C41.3651 84.4886 42.9673 85.6591 44.9673 86.4545C46.9901 87.2273 49.2741 87.6136 51.8196 87.6136C54.3196 87.6136 56.4901 87.25 58.331 86.5227C60.1946 85.7955 61.6378 84.7841 62.6605 83.4886C63.6832 82.1932 64.1946 80.7045 64.1946 79.0227C64.1946 77.4545 63.7287 76.1364 62.7969 75.0682C61.8878 74 60.5469 73.0909 58.7741 72.3409C57.0241 71.5909 54.8764 70.9091 52.331 70.2955L44.7287 68.3864C38.8423 66.9545 34.1946 64.7159 30.7855 61.6705C27.3764 58.625 25.6832 54.5227 25.706 49.3636C25.6832 45.1364 26.8082 41.4432 29.081 38.2841C31.3764 35.125 34.5241 32.6591 38.5241 30.8864C42.5241 29.1136 47.0696 28.2273 52.1605 28.2273C57.3423 28.2273 61.8651 29.1136 65.7287 30.8864C69.6151 32.6591 72.6378 35.125 74.7969 38.2841C76.956 41.4432 78.0696 45.1023 78.1378 49.2614H63.9901Z" fill="#00B531"/>
</g>
<defs>
<filter id="filter0_d_18_680" x="-26.1349" y="-25.5454" width="155.227" height="187.273" filterUnits="userSpaceOnUse" color-interpolation-filters="sRGB">
<feFlood flood-opacity="0" result="BackgroundImageFix"/>
<feColorMatrix in="SourceAlpha" type="matrix" values="0 0 0 0 0 0 0 0 0 0 0 0 0 0 0 0 0 0 127 0" result="hardAlpha"/>
<feOffset dy="4"/>
<feGaussianBlur stdDeviation="25"/>
<feComposite in2="hardAlpha" operator="out"/>
<feColorMatrix type="matrix" values="0 0 0 0 0 0 0 0 0 0.709804 0 0 0 0 0.192157 0 0 0 1 0"/>
<feBlend mode="normal" in2="BackgroundImageFix" result="effect1_dropShadow_18_680"/>
<feBlend mode="normal" in="SourceGraphic" in2="effect1_dropShadow_18_680" result="shape"/>
</filter>
</defs>
</svg>
