<svg width="175" height="217" viewBox="0 0 175 217" fill="none" xmlns="http://www.w3.org/2000/svg">
<g filter="url(#filter0_d_7_1398)">
<path d="M84.3807 162.636V46.2727H91.8352V162.636H84.3807ZM104.153 84.6818C103.79 81.0151 102.229 78.1667 99.4716 76.1364C96.714 74.1061 92.9716 73.0909 88.2443 73.0909C85.0322 73.0909 82.3201 73.5455 80.108 74.4545C77.8958 75.3333 76.1989 76.5606 75.017 78.1364C73.8655 79.7121 73.2898 81.5 73.2898 83.5C73.2292 85.1667 73.5777 86.6212 74.3352 87.8636C75.1231 89.1061 76.1989 90.1818 77.5625 91.0909C78.9261 91.9697 80.5019 92.7424 82.2898 93.4091C84.0777 94.0455 85.9867 94.5909 88.017 95.0455L96.3807 97.0455C100.441 97.9545 104.169 99.1667 107.562 100.682C110.956 102.197 113.896 104.061 116.381 106.273C118.866 108.485 120.79 111.091 122.153 114.091C123.547 117.091 124.259 120.53 124.29 124.409C124.259 130.106 122.805 135.045 119.926 139.227C117.078 143.379 112.956 146.606 107.562 148.909C102.199 151.182 95.7292 152.318 88.1534 152.318C80.6383 152.318 74.0928 151.167 68.517 148.864C62.9716 146.561 58.6383 143.152 55.517 138.636C52.4261 134.091 50.8049 128.47 50.6534 121.773H69.6989C69.911 124.894 70.8049 127.5 72.3807 129.591C73.9867 131.652 76.1231 133.212 78.7898 134.273C81.4867 135.303 84.5322 135.818 87.9261 135.818C91.2595 135.818 94.1534 135.333 96.608 134.364C99.0928 133.394 101.017 132.045 102.381 130.318C103.744 128.591 104.426 126.606 104.426 124.364C104.426 122.273 103.805 120.515 102.562 119.091C101.35 117.667 99.5625 116.455 97.1989 115.455C94.8655 114.455 92.0019 113.545 88.608 112.727L78.4716 110.182C70.6231 108.273 64.4261 105.288 59.8807 101.227C55.3352 97.1667 53.0777 91.697 53.108 84.8182C53.0777 79.1818 54.5777 74.2576 57.608 70.0455C60.6686 65.8333 64.8655 62.5455 70.1989 60.1818C75.5322 57.8182 81.5928 56.6364 88.3807 56.6364C95.2898 56.6364 101.32 57.8182 106.472 60.1818C111.653 62.5455 115.684 65.8333 118.562 70.0455C121.441 74.2576 122.926 79.1364 123.017 84.6818H104.153Z" fill="#00B531"/>
</g>
<defs>
<filter id="filter0_d_7_1398" x="0.653408" y="0.272705" width="173.636" height="216.364" filterUnits="userSpaceOnUse" color-interpolation-filters="sRGB">
<feFlood flood-opacity="0" result="BackgroundImageFix"/>
<feColorMatrix in="SourceAlpha" type="matrix" values="0 0 0 0 0 0 0 0 0 0 0 0 0 0 0 0 0 0 127 0" result="hardAlpha"/>
<feOffset dy="4"/>
<feGaussianBlur stdDeviation="25"/>
<feComposite in2="hardAlpha" operator="out"/>
<feColorMatrix type="matrix" values="0 0 0 0 0 0 0 0 0 0.509804 0 0 0 0 0.0666667 0 0 0 1 0"/>
<feBlend mode="normal" in2="BackgroundImageFix" result="effect1_dropShadow_7_1398"/>
<feBlend mode="normal" in="SourceGraphic" in2="effect1_dropShadow_7_1398" result="shape"/>
</filter>
</defs>
</svg>
