<svg width="32" height="32" viewBox="0 0 32 32" fill="none" xmlns="http://www.w3.org/2000/svg">
<path d="M11.4151 27.1818V5.36364H12.8129V27.1818H11.4151ZM15.1225 12.5653C15.0543 11.8778 14.7617 11.3437 14.2447 10.9631C13.7276 10.5824 13.0259 10.392 12.1396 10.392C11.5373 10.392 11.0288 10.4773 10.614 10.6477C10.1992 10.8125 9.88104 11.0426 9.65945 11.3381C9.44354 11.6335 9.33558 11.9688 9.33558 12.3438C9.32422 12.6562 9.38956 12.929 9.53161 13.1619C9.67933 13.3949 9.88104 13.5966 10.1367 13.767C10.3924 13.9318 10.6879 14.0767 11.0231 14.2017C11.3583 14.321 11.7163 14.4233 12.0969 14.5085L13.6651 14.8835C14.4265 15.054 15.1254 15.2812 15.7617 15.5653C16.3981 15.8494 16.9492 16.1989 17.4151 16.6136C17.881 17.0284 18.2418 17.517 18.4975 18.0795C18.7589 18.642 18.8924 19.2869 18.8981 20.0142C18.8924 21.0824 18.6197 22.0085 18.0799 22.7926C17.5458 23.571 16.7731 24.1761 15.7617 24.608C14.756 25.0341 13.543 25.2472 12.1225 25.2472C10.7134 25.2472 9.48615 25.0312 8.4407 24.5994C7.40092 24.1676 6.58842 23.5284 6.0032 22.6818C5.42365 21.8295 5.11967 20.7756 5.09126 19.5199H8.66229C8.70206 20.1051 8.86967 20.5937 9.16513 20.9858C9.46626 21.3722 9.86683 21.6648 10.3668 21.8636C10.8725 22.0568 11.4435 22.1534 12.0799 22.1534C12.7049 22.1534 13.2475 22.0625 13.7077 21.8807C14.1737 21.6989 14.5344 21.446 14.7901 21.1222C15.0458 20.7983 15.1737 20.4261 15.1737 20.0057C15.1737 19.6136 15.0572 19.2841 14.8242 19.017C14.5969 18.75 14.2617 18.5227 13.8185 18.3352C13.381 18.1477 12.8441 17.9773 12.2077 17.8239L10.3072 17.3466C8.83558 16.9886 7.67365 16.429 6.82138 15.6676C5.96911 14.9062 5.54581 13.8807 5.55149 12.5909C5.54581 11.5341 5.82706 10.6108 6.39524 9.82102C6.96911 9.03125 7.75604 8.41477 8.75604 7.97159C9.75604 7.52841 10.8924 7.30682 12.1651 7.30682C13.4606 7.30682 14.5913 7.52841 15.5572 7.97159C16.5288 8.41477 17.2844 9.03125 17.8242 9.82102C18.364 10.6108 18.6424 11.5256 18.6594 12.5653H15.1225Z" fill="white"/>
</svg>
