<svg width="52" height="13" viewBox="0 0 52 13" fill="none" xmlns="http://www.w3.org/2000/svg">
<path d="M11.3864 6.18182C11.3864 7.42424 11.1591 8.49242 10.7045 9.38636C10.25 10.2765 9.62689 10.9621 8.83523 11.4432C8.04735 11.9205 7.15152 12.1591 6.14773 12.1591C5.14015 12.1591 4.24053 11.9205 3.44886 11.4432C2.66098 10.9621 2.03977 10.2746 1.58523 9.38068C1.13068 8.48674 0.903409 7.42045 0.903409 6.18182C0.903409 4.93939 1.13068 3.87311 1.58523 2.98295C2.03977 2.08901 2.66098 1.40341 3.44886 0.926136C4.24053 0.445075 5.14015 0.204545 6.14773 0.204545C7.15152 0.204545 8.04735 0.445075 8.83523 0.926136C9.62689 1.40341 10.25 2.08901 10.7045 2.98295C11.1591 3.87311 11.3864 4.93939 11.3864 6.18182ZM9.64773 6.18182C9.64773 5.23485 9.49432 4.4375 9.1875 3.78977C8.88447 3.13826 8.4678 2.64583 7.9375 2.3125C7.41098 1.97538 6.81439 1.80682 6.14773 1.80682C5.47727 1.80682 4.87879 1.97538 4.35227 2.3125C3.82576 2.64583 3.40909 3.13826 3.10227 3.78977C2.79924 4.4375 2.64773 5.23485 2.64773 6.18182C2.64773 7.12879 2.79924 7.92803 3.10227 8.57955C3.40909 9.22727 3.82576 9.7197 4.35227 10.0568C4.87879 10.3902 5.47727 10.5568 6.14773 10.5568C6.81439 10.5568 7.41098 10.3902 7.9375 10.0568C8.4678 9.7197 8.88447 9.22727 9.1875 8.57955C9.49432 7.92803 9.64773 7.12879 9.64773 6.18182ZM18.9673 8.38068V3.27273H20.6719V12H19.0014V10.4886H18.9105C18.7098 10.9545 18.3878 11.3428 17.9446 11.6534C17.5052 11.9602 16.9579 12.1136 16.3026 12.1136C15.742 12.1136 15.2457 11.9905 14.8139 11.7443C14.3859 11.4943 14.0488 11.125 13.8026 10.6364C13.5601 10.1477 13.4389 9.54356 13.4389 8.82386V3.27273H15.1378V8.61932C15.1378 9.21402 15.3026 9.6875 15.6321 10.0398C15.9616 10.392 16.3897 10.5682 16.9162 10.5682C17.2344 10.5682 17.5507 10.4886 17.8651 10.3295C18.1832 10.1705 18.4465 9.92992 18.6548 9.60795C18.867 9.28598 18.9711 8.87689 18.9673 8.38068ZM27.0284 3.27273V4.63636H22.2614V3.27273H27.0284ZM23.5398 1.18182H25.2386V9.4375C25.2386 9.76705 25.2879 10.0152 25.3864 10.1818C25.4848 10.3447 25.6117 10.4564 25.767 10.517C25.9261 10.5739 26.0985 10.6023 26.2841 10.6023C26.4205 10.6023 26.5398 10.5928 26.642 10.5739C26.7443 10.5549 26.8239 10.5398 26.8807 10.5284L27.1875 11.9318C27.089 11.9697 26.9489 12.0076 26.767 12.0455C26.5852 12.0871 26.358 12.1098 26.0852 12.1136C25.6383 12.1212 25.2216 12.0417 24.8352 11.875C24.4489 11.7083 24.1364 11.4508 23.8977 11.1023C23.6591 10.7538 23.5398 10.3163 23.5398 9.78977V1.18182ZM28.9077 12V3.27273H30.5497V4.65909H30.6406C30.7997 4.18939 31.08 3.82008 31.4815 3.55114C31.8868 3.27841 32.3452 3.14205 32.8565 3.14205C32.9626 3.14205 33.0876 3.14583 33.2315 3.15341C33.3793 3.16098 33.4948 3.17045 33.5781 3.18182V4.80682C33.5099 4.78788 33.3887 4.76705 33.2145 4.74432C33.0402 4.7178 32.866 4.70455 32.6918 4.70455C32.2902 4.70455 31.9323 4.78977 31.6179 4.96023C31.3073 5.12689 31.0611 5.35985 30.8793 5.65909C30.6974 5.95455 30.6065 6.29167 30.6065 6.67045V12H28.9077ZM38.4119 12.1761C37.5938 12.1761 36.8797 11.9886 36.2699 11.6136C35.66 11.2386 35.1866 10.714 34.8494 10.0398C34.5123 9.36553 34.3438 8.57765 34.3438 7.67614C34.3438 6.77083 34.5123 5.97917 34.8494 5.30114C35.1866 4.62311 35.66 4.09659 36.2699 3.72159C36.8797 3.34659 37.5938 3.15909 38.4119 3.15909C39.2301 3.15909 39.9441 3.34659 40.554 3.72159C41.1638 4.09659 41.6373 4.62311 41.9744 5.30114C42.3116 5.97917 42.4801 6.77083 42.4801 7.67614C42.4801 8.57765 42.3116 9.36553 41.9744 10.0398C41.6373 10.714 41.1638 11.2386 40.554 11.6136C39.9441 11.9886 39.2301 12.1761 38.4119 12.1761ZM38.4176 10.75C38.9479 10.75 39.3873 10.6098 39.7358 10.3295C40.0843 10.0492 40.3419 9.67614 40.5085 9.21023C40.679 8.74432 40.7642 8.23106 40.7642 7.67045C40.7642 7.11364 40.679 6.60227 40.5085 6.13636C40.3419 5.66667 40.0843 5.28977 39.7358 5.00568C39.3873 4.72159 38.9479 4.57955 38.4176 4.57955C37.8835 4.57955 37.4403 4.72159 37.0881 5.00568C36.7396 5.28977 36.4801 5.66667 36.3097 6.13636C36.143 6.60227 36.0597 7.11364 36.0597 7.67045C36.0597 8.23106 36.143 8.74432 36.3097 9.21023C36.4801 9.67614 36.7396 10.0492 37.0881 10.3295C37.4403 10.6098 37.8835 10.75 38.4176 10.75ZM50.9162 5.40341L49.3764 5.67614C49.312 5.47917 49.2098 5.29167 49.0696 5.11364C48.9332 4.93561 48.7476 4.78977 48.5128 4.67614C48.2779 4.5625 47.9844 4.50568 47.6321 4.50568C47.151 4.50568 46.7495 4.61364 46.4276 4.82955C46.1056 5.04167 45.9446 5.31629 45.9446 5.65341C45.9446 5.94508 46.0526 6.17992 46.2685 6.35795C46.4844 6.53598 46.8329 6.68182 47.3139 6.79545L48.7003 7.11364C49.5033 7.29924 50.1018 7.58523 50.4957 7.97159C50.8897 8.35795 51.0866 8.85985 51.0866 9.47727C51.0866 10 50.9351 10.4659 50.6321 10.875C50.3329 11.2803 49.9143 11.5985 49.3764 11.8295C48.8423 12.0606 48.223 12.1761 47.5185 12.1761C46.5412 12.1761 45.7438 11.9678 45.1264 11.5511C44.509 11.1307 44.1302 10.5341 43.9901 9.76136L45.6321 9.51136C45.7344 9.93939 45.9446 10.2633 46.2628 10.483C46.581 10.6989 46.9957 10.8068 47.5071 10.8068C48.0639 10.8068 48.509 10.6913 48.8423 10.4602C49.1757 10.2254 49.3423 9.93939 49.3423 9.60227C49.3423 9.32955 49.2401 9.10038 49.0355 8.91477C48.8348 8.72917 48.526 8.58902 48.1094 8.49432L46.6321 8.17045C45.8177 7.98485 45.2154 7.68939 44.8253 7.28409C44.4389 6.87879 44.2457 6.36553 44.2457 5.74432C44.2457 5.22917 44.3897 4.77841 44.6776 4.39205C44.9654 4.00568 45.3632 3.70455 45.8707 3.48864C46.3783 3.26894 46.9598 3.15909 47.6151 3.15909C48.5582 3.15909 49.3007 3.36364 49.8423 3.77273C50.384 4.17803 50.742 4.72159 50.9162 5.40341Z" fill="white"/>
</svg>
