<svg width="26" height="28" viewBox="0 0 26 28" fill="none" xmlns="http://www.w3.org/2000/svg">
<path d="M19.1003 27.022C19.7104 27.9428 20.9515 28.1945 21.8722 27.5844C22.793 26.9742 23.0447 25.7331 22.4346 24.8124L19.1003 27.022ZM6.58471 0.895197C5.97454 -0.0255461 4.73349 -0.277312 3.81275 0.33286C2.89201 0.943032 2.64024 2.18408 3.25041 3.10482L6.58471 0.895197ZM22.4346 24.8124L6.58471 0.895197L3.25041 3.10482L19.1003 27.022L22.4346 24.8124Z" fill="#FD5E5E"/>
<path d="M1.84387 23.3842C1.11243 24.2119 1.19045 25.4758 2.01813 26.2073C2.84582 26.9387 4.10974 26.8607 4.84119 26.033L1.84387 23.3842ZM23.8412 4.53301C24.5726 3.70533 24.4946 2.4414 23.6669 1.70996C22.8392 0.978517 21.5753 1.05654 20.8439 1.88422L23.8412 4.53301ZM4.84119 26.033L23.8412 4.53301L20.8439 1.88422L1.84387 23.3842L4.84119 26.033Z" fill="#FD5E5E"/>
</svg>
